<svg width="351" height="332" viewBox="0 0 351 332" fill="none" xmlns="http://www.w3.org/2000/svg">
<path d="M332.625 157C327.984 157 323.533 158.844 320.251 162.126C316.969 165.408 315.125 169.859 315.125 174.5V279.5C315.125 284.141 313.281 288.592 309.999 291.874C306.718 295.156 302.266 297 297.625 297H52.6255C47.9842 297 43.533 295.156 40.2511 291.874C36.9692 288.592 35.1255 284.141 35.1255 279.5V174.5C35.1255 169.859 33.2818 165.408 29.9999 162.126C26.718 158.844 22.2668 157 17.6255 157C12.9842 157 8.53299 158.844 5.25109 162.126C1.96919 165.408 0.125488 169.859 0.125488 174.5V279.5C0.125488 293.424 5.65669 306.777 15.5024 316.623C25.3481 326.469 38.7016 332 52.6255 332H297.625C311.549 332 324.902 326.469 334.748 316.623C344.594 306.777 350.125 293.424 350.125 279.5V174.5C350.125 172.202 349.672 169.926 348.793 167.803C347.913 165.68 346.624 163.751 344.999 162.126C343.374 160.501 341.445 159.212 339.322 158.332C337.199 157.453 334.923 157 332.625 157Z" fill="#00897B"/>
<path d="M192.102 185.325L232.177 145.075C233.809 143.443 235.746 142.149 237.878 141.266C240.01 140.383 242.294 139.928 244.602 139.928C246.91 139.928 249.194 140.383 251.326 141.266C253.458 142.149 255.395 143.443 257.027 145.075C258.659 146.707 259.953 148.644 260.836 150.776C261.719 152.908 262.174 155.192 262.174 157.5C262.174 159.808 261.719 162.092 260.836 164.224C259.953 166.356 258.659 168.293 257.027 169.925L187.027 239.925C185.363 241.518 183.4 242.767 181.252 243.6C176.991 245.35 172.213 245.35 167.952 243.6C165.804 242.767 163.841 241.518 162.177 239.925L92.177 169.925C90.537 168.298 89.235 166.363 88.346 164.23C87.458 162.098 87 159.81 87 157.5C87 155.19 87.458 152.902 88.346 150.77C89.235 148.637 90.537 146.702 92.177 145.075C93.804 143.435 95.739 142.133 97.872 141.244C100.004 140.356 102.292 139.899 104.602 139.899C106.912 139.899 109.2 140.356 111.332 141.244C113.465 142.133 115.4 143.435 117.027 145.075L157.102 185.325V17.5C157.102 12.859 158.946 8.408 162.228 5.126C165.51 1.844 169.961 0 174.602 0C179.243 0 183.694 1.844 186.976 5.126C190.258 8.408 192.102 12.859 192.102 17.5V185.325Z" fill="#00897B"/>
</svg>
