<svg width="35" height="35" viewBox="0 0 35 35" fill="none" xmlns="http://www.w3.org/2000/svg">
<g clip-path="url(#clip0_35_2)">
<path d="M29.9563 6.83095L23.8295 0.704049C23.4998 0.374039 23.0607 0.192322 22.5943 0.192322H6.24017C5.27665 0.192322 4.49292 0.976048 4.49292 1.93957V33.0212C4.49292 33.9848 5.27665 34.7685 6.24017 34.7685H28.7208C29.6844 34.7685 30.4685 33.9848 30.4685 33.0212V8.06647C30.4685 7.59969 30.2864 7.16057 29.9563 6.83095ZM23.6554 2.15971L28.5003 7.00498H24.146C23.8756 7.00498 23.6558 6.78484 23.6558 6.51438L23.6554 2.15971ZM28.7208 33.616H6.24017C5.91208 33.616 5.64546 33.3493 5.64546 33.0212V1.93957C5.64546 1.61148 5.91208 1.34486 6.24017 1.34486H22.5033V6.51438C22.5033 7.42028 23.2401 8.15752 24.146 8.15752H29.3159V33.0212C29.3159 33.3493 29.0489 33.616 28.7208 33.616Z" fill="#00675E"/>
<path d="M26.3908 12.9928H16.2542C15.9358 12.9928 15.678 12.735 15.678 12.4165C15.678 12.0981 15.9358 11.8403 16.2542 11.8403H26.3908C26.7089 11.8403 26.9671 12.0981 26.9671 12.4165C26.9671 12.735 26.7089 12.9928 26.3908 12.9928Z" fill="#00675E"/>
<path d="M13.4297 12.9928H8.57017C8.25168 12.9928 7.9939 12.735 7.9939 12.4165C7.9939 12.0981 8.25168 11.8403 8.57017 11.8403H13.4297C13.7481 11.8403 14.0059 12.0981 14.0059 12.4165C14.0059 12.735 13.7481 12.9928 13.4297 12.9928Z" fill="#00675E"/>
<path d="M16.4424 8.15754H8.57017C8.25168 8.15754 7.9939 7.89976 7.9939 7.58127C7.9939 7.26279 8.25168 7.005 8.57017 7.005H16.4428C16.7613 7.005 17.019 7.26279 17.019 7.58127C17.019 7.89976 16.7609 8.15754 16.4424 8.15754Z" fill="#00675E"/>
<path d="M26.3907 17.2188H8.57017C8.25168 17.2188 7.9939 16.961 7.9939 16.6425C7.9939 16.324 8.25168 16.0662 8.57017 16.0662H26.3911C26.7092 16.0662 26.9674 16.324 26.9674 16.6425C26.9674 16.961 26.7088 17.2188 26.3907 17.2188Z" fill="#00675E"/>
<path d="M18.7064 21.4448H8.57017C8.25168 21.4448 7.9939 21.1866 7.9939 20.8685C7.9939 20.5504 8.25168 20.2922 8.57017 20.2922H18.7067C19.0248 20.2922 19.283 20.5504 19.283 20.8685C19.283 21.1866 19.0248 21.4448 18.7064 21.4448Z" fill="#00675E"/>
<path d="M26.3908 21.4448H21.5313C21.2132 21.4448 20.9551 21.1866 20.9551 20.8685C20.9551 20.5504 21.2132 20.2922 21.5313 20.2922H26.3908C26.7089 20.2922 26.9671 20.5504 26.9671 20.8685C26.9671 21.1866 26.7089 21.4448 26.3908 21.4448Z" fill="#00675E"/>
<path d="M26.3907 25.6707H8.57017C8.25168 25.6707 7.9939 25.4126 7.9939 25.0945C7.9939 24.7764 8.25168 24.5182 8.57017 24.5182H26.3911C26.7092 24.5182 26.9674 24.7764 26.9674 25.0945C26.9674 25.4126 26.7088 25.6707 26.3907 25.6707Z" fill="#00675E"/>
<path d="M26.3908 29.8967H21.5313C21.2132 29.8967 20.9551 29.6386 20.9551 29.3205C20.9551 29.0024 21.2132 28.7442 21.5313 28.7442H26.3908C26.7089 28.7442 26.9671 29.0024 26.9671 29.3205C26.9671 29.6386 26.7089 29.8967 26.3908 29.8967Z" fill="#00675E"/>
</g>
<defs>
<clipPath id="clip0_35_2">
<rect width="35" height="35" fill="white"/>
</clipPath>
</defs>
</svg>
