<svg width="420" height="420" viewBox="0 0 420 420" fill="none" xmlns="http://www.w3.org/2000/svg">
<path d="M152.425 134.925L192.5 94.675V262.5C192.5 267.141 194.344 271.592 197.626 274.874C200.908 278.156 205.359 280 210 280C214.641 280 219.092 278.156 222.374 274.874C225.656 271.592 227.5 267.141 227.5 262.5V94.675L267.575 134.925C269.202 136.565 271.137 137.867 273.27 138.756C275.402 139.644 277.69 140.101 280 140.101C282.31 140.101 284.598 139.644 286.73 138.756C288.863 137.867 290.798 136.565 292.425 134.925C294.065 133.298 295.367 131.363 296.256 129.23C297.144 127.098 297.602 124.81 297.602 122.5C297.602 120.19 297.144 117.902 296.256 115.77C295.367 113.637 294.065 111.702 292.425 110.075L222.425 40.075C220.761 38.4818 218.798 37.2329 216.65 36.4C212.389 34.6497 207.611 34.6497 203.35 36.4C201.202 37.2329 199.239 38.4818 197.575 40.075L127.575 110.075C125.943 111.707 124.649 113.644 123.766 115.776C122.883 117.908 122.428 120.192 122.428 122.5C122.428 124.808 122.883 127.092 123.766 129.224C124.649 131.356 125.943 133.293 127.575 134.925C129.207 136.557 131.144 137.851 133.276 138.734C135.408 139.617 137.692 140.072 140 140.072C142.308 140.072 144.592 139.617 146.724 138.734C148.856 137.851 150.793 136.557 152.425 134.925ZM367.5 210C362.859 210 358.408 211.844 355.126 215.126C351.844 218.408 350 222.859 350 227.5V332.5C350 337.141 348.156 341.592 344.874 344.874C341.593 348.156 337.141 350 332.5 350H87.5C82.8587 350 78.4075 348.156 75.1256 344.874C71.8437 341.592 70 337.141 70 332.5V227.5C70 222.859 68.1563 218.408 64.8744 215.126C61.5925 211.844 57.1413 210 52.5 210C47.8587 210 43.4075 211.844 40.1256 215.126C36.8437 218.408 35 222.859 35 227.5V332.5C35 346.424 40.5312 359.777 50.3769 369.623C60.2226 379.469 73.5761 385 87.5 385H332.5C346.424 385 359.777 379.469 369.623 369.623C379.469 359.777 385 346.424 385 332.5V227.5C385 225.202 384.547 222.926 383.668 220.803C382.788 218.68 381.499 216.751 379.874 215.126C378.249 213.501 376.32 212.212 374.197 211.332C372.074 210.453 369.798 210 367.5 210Z" fill="#00897B"/>
</svg>
